<?xml version="1.0" encoding="UTF-8"?><svg id="Ebene_2" xmlns="http://www.w3.org/2000/svg" xmlns:xlink="http://www.w3.org/1999/xlink" viewBox="0 0 272.69 863.9"><defs><style>.cls-1{fill:none;}.cls-2{clip-path:url(#clippath);}.cls-3{fill:#ccbda2;}.cls-4{fill:#dfd7c6;}</style><clipPath id="clippath"><rect class="cls-1" width="272.69" height="863.9"/></clipPath></defs><g id="Ebene_1-2"><g class="cls-2"><path class="cls-3" d="m175.12,150.84c-26.01,11.12-52.02,11.12-78.04,0,13.01-22.24,13.01-44.48,0-66.72,26.01-11.12,52.02-11.12,78.04,0-13.01,22.24-13.01,44.48,0,66.72"/><path class="cls-4" d="m180.47,56.79c0,31.36-19.86,56.79-44.37,56.79s-44.37-25.42-44.37-56.79C91.73,7.77,111.6,0,136.1,0s44.37,9.21,44.37,56.79"/><path class="cls-4" d="m186.8,56.96c0,6.18-2.45,13.26-7.06,13.26s-7.06-7.08-7.06-13.26,2.45-11.97,7.06-11.97,7.06,5.8,7.06,11.97"/><path class="cls-4" d="m85.4,56.96c0,6.18,2.45,13.26,7.06,13.26s7.06-7.08,7.06-13.26-2.45-11.97-7.06-11.97-7.06,5.8-7.06,11.97"/><path class="cls-3" d="m119.25,128.25c-31.71,25.84-108.16,23.09-108.16,60.82,0,20.9,59.68,79.12,56.26,126.91-9.32,130.4,11.53,39.09,68.46,46.77v-219.73l-16.56-14.77Z"/><path class="cls-3" d="m54.89,224.09c0,31.75-12.29,57.48-27.45,57.48S0,255.84,0,224.09s12.29-57.48,27.45-57.48,27.45,25.74,27.45,57.48"/><path class="cls-3" d="m39.89,342.39c-17.32,50.68-3.53,37.26-18.67,36.6-15.15-.67-21.38-20.16-18.42-42.97,9.46-73-13.09-101.48,14.33-100.26,15.14.67,51.37,22.92,22.76,106.64"/><path class="cls-3" d="m41.33,369.46c-.92,7.36-13.25,57.69-10.97,80.68-3.75,12.11-8.55,22.35-13.58,22.13-9.92-.44-15.26-41.29-15.14-56.36.54-65.96-4.64-84.32,5.28-83.88,9.92.44,48.98-79.29,34.41,37.43"/><path class="cls-3" d="m46,475.29c.99,2.33-4.03,20.16,2.31,28.49,2.35,3.09,3.31,8.73-2.99,7.62-7.02-1.23-14.66-17.46-15.12-13.35-1.26,11.3,13,33.59,9.9,34.25-6.88,1.45-28.1-15.96-29.41-26.55-4.21-33.9-5.14-46.69,1.74-48.15,6.88-1.46,14.05-28.22,33.56,17.68"/><path class="cls-3" d="m67.16,555.48c-7.42-23.91-15.38-55.59-15.38-83.46,0-30.85,7.3-82.96,12.75-105.59,7.6-31.6,35.82-21.25,49.19-21.25,22.95,0,32.6,27.27,32.6,134.23"/><path class="cls-3" d="m146.32,479.4c0,73.91-15.6,104.18-21.49,132.93-1.85,9.05-36.02,35.64-44.39,20.19-2.03-3.75,3.04-29.25-6.5-56.54-2.01-5.74-4.36-12.71-6.78-20.5"/><path class="cls-3" d="m125.62,853.13c-20.13-13.39,2.31-90.08,4.98-114.42,7.57-69.22-6.94-141.99-21.73-141.99-8.62,0-21.88-7.56-26.78,22.21-3.51,21.32-2.41,44.07-8.64,72.45-5.17,23.55,31.1,144.58,18.71,160.82l33.46.92Z"/><path class="cls-3" d="m130.6,585.34c0,15.71-12.31,56.88-24.83,56.88s-22.67-12.73-22.67-28.44,10.15-28.44,22.67-28.44,24.83-15.71,24.83,0"/><path class="cls-3" d="m130.6,861.1c0,3.4-6.48,2.76-21.26,2.76s-23.98.29-26.76-1.67c-1.32-.93-1.45-7.84,3.51-8.4,7.27-2.82,14.93-9,23.24-9,9.24,0,10.6,3.07,15.42,7.69,2.89,2.77,5.85,7.35,5.85,8.62"/><path class="cls-3" d="m151.6,128.25c31.71,25.84,108.16,23.09,108.16,60.82,0,20.9-61.89,79.38-55.8,126.91,16.98,132.56-11.99,39.09-68.92,46.77v-219.73l16.56-14.77Z"/><path class="cls-3" d="m215.96,224.09c0,31.75,12.29,57.48,27.45,57.48s27.45-25.74,27.45-57.48-12.29-57.48-27.45-57.48-27.45,25.74-27.45,57.48"/><path class="cls-3" d="m232.23,343.03c17.87,50.48,3.93,37.22,19.07,36.39,15.14-.83,21.15-20.4,17.95-43.17-10.25-72.89,11.98-101.61-15.43-100.1-15.13.84-51.11,23.48-21.59,106.88"/><path class="cls-3" d="m231.08,370.11c1,7.35,13.88,57.55,11.86,80.56,3.88,12.06,8.79,22.26,13.82,21.98,9.92-.55,16.62-41.6,14.53-56.52-6.72-47.76,10.64-51.03-6.21-83.82-4.54-8.84-49.85-78.75-34,37.81"/><path class="cls-3" d="m227.58,475.98c-.97,2.35,4.25,20.12-2,28.52-2.32,3.12-3.22,8.76,3.07,7.59,7-1.31,14.46-17.63,14.97-13.51,1.39,11.29-12.63,33.74-9.53,34.35,6.9,1.38,27.92-16.27,29.12-26.87,3.84-33.94,4.62-46.75-2.27-48.12-6.9-1.39-14.36-28.07-33.36,18.05"/><path class="cls-3" d="m124.83,479.4c0,73.91,15.76,99.95,21.65,128.71,1.86,9.05,35.86,39.87,44.23,24.42,2.03-3.75-4.44-29.25,5.09-56.54,8.16-23.36,16.14-55.05,16.14-92.01,0-30.85.12-94.91-5.33-117.55-7.6-31.6-35.81-21.25-49.19-21.25-22.94,0-32.6,27.27-32.6,134.23"/><path class="cls-3" d="m145.23,853.13c20.13-13.39-2.31-90.08-4.98-114.42-7.57-69.22,6.93-141.99,21.73-141.99,8.62,0,21.88-7.56,26.78,22.21,3.51,21.32,2.41,44.07,8.63,72.45,5.17,23.55-31.1,144.58-18.71,160.82l-33.46.92Z"/><path class="cls-3" d="m142.41,613.78c0,15.71,10.15,28.44,22.67,28.44s22.67-12.73,22.67-28.44-23.8-46.85-36.32-46.85-9.03,31.14-9.03,46.85"/><path class="cls-3" d="m140.25,861.1c0,3.4,6.48,2.76,21.26,2.76s23.98.29,26.76-1.67c1.32-.93,1.45-7.84-3.51-8.4-7.27-2.82-14.93-9-23.25-9-9.24,0-10.6,3.07-15.41,7.69-2.89,2.77-5.85,7.35-5.85,8.62"/></g></g></svg>